<svg width="20" height="20" viewBox="0 0 20 20" fill="none" xmlns="http://www.w3.org/2000/svg">
<g clip-path="url(#clip0_161_92)">
<path d="M10 20C15.5228 20 20 15.5228 20 10C20 4.47715 15.5228 0 10 0C4.47715 0 0 4.47715 0 10C0 15.5228 4.47715 20 10 20Z" fill="#F0F0F0"/>
<path d="M10 0C6.03543 0 2.60981 2.30723 0.99231 5.65219H19.0077C17.3903 2.30723 13.9646 0 10 0Z" fill="#338AF3"/>
<path d="M10 19.9998C13.9646 19.9998 17.3903 17.6926 19.0078 14.3477H0.99231C2.60981 17.6926 6.03543 19.9998 10 19.9998Z" fill="#338AF3"/>
<path d="M12.9889 9.99999L11.7676 10.5745L12.418 11.7573L11.0918 11.5035L10.9237 12.8432L10 11.8579L9.07628 12.8432L8.90827 11.5035L7.58211 11.7572L8.23242 10.5744L7.01117 9.99999L8.23246 9.42549L7.58211 8.24276L8.90824 8.49643L9.07632 7.15674L10 8.14205L10.9238 7.15674L11.0918 8.49643L12.418 8.24276L11.7676 9.42553L12.9889 9.99999Z" fill="#FFDA44"/>
</g>
<defs>
<clipPath id="clip0_161_92">
<rect width="20" height="20" fill="white"/>
</clipPath>
</defs>
</svg>
