<svg width="20" height="20" viewBox="0 0 20 20" fill="none" xmlns="http://www.w3.org/2000/svg">
<g clip-path="url(#clip0_161_93)">
<path d="M10 20C15.5228 20 20 15.5228 20 10C20 4.47715 15.5228 0 10 0C4.47715 0 0 4.47715 0 10C0 15.5228 4.47715 20 10 20Z" fill="#6DA544"/>
<path d="M9.99999 3.91309L18.2609 10L9.99999 16.087L1.73914 10L9.99999 3.91309Z" fill="#FFDA44"/>
<path d="M9.99997 13.4785C11.921 13.4785 13.4782 11.9212 13.4782 10.0002C13.4782 8.07923 11.921 6.52197 9.99997 6.52197C8.07899 6.52197 6.52173 8.07923 6.52173 10.0002C6.52173 11.9212 8.07899 13.4785 9.99997 13.4785Z" fill="#F0F0F0"/>
<path d="M8.26083 9.78271C7.65599 9.78271 7.07228 9.87471 6.52283 10.0454C6.54716 11.9454 8.09419 13.4784 9.99996 13.4784C11.1784 13.4784 12.2192 12.8918 12.8484 11.9953C11.7719 10.6477 10.1156 9.78271 8.26083 9.78271Z" fill="#0052B4"/>
<path d="M13.4136 10.6666C13.4555 10.4508 13.4781 10.2282 13.4781 10.0002C13.4781 8.0792 11.9209 6.52197 9.99991 6.52197C8.56655 6.52197 7.33609 7.3892 6.80359 8.6274C7.27429 8.52986 7.76163 8.4785 8.26081 8.4785C10.281 8.47846 12.1086 9.31822 13.4136 10.6666Z" fill="#0052B4"/>
</g>
<defs>
<clipPath id="clip0_161_93">
<rect width="20" height="20" fill="white"/>
</clipPath>
</defs>
</svg>
