<svg width="20" height="20" viewBox="0 0 20 20" fill="none" xmlns="http://www.w3.org/2000/svg">
<g clip-path="url(#clip0_161_90)">
<path d="M10 20C15.5228 20 20 15.5228 20 10C20 4.47715 15.5228 0 10 0C4.47715 0 0 4.47715 0 10C0 15.5228 4.47715 20 10 20Z" fill="#F0F0F0"/>
<path d="M20 9.99999C20 15.5228 15.5228 20 10 20C4.47719 20 0 15.5228 0 9.99999C0 4.47718 10 9.99999 10 9.99999C10 9.99999 17.5688 9.99999 20 9.99999Z" fill="#D80027"/>
<path d="M0 10C0 4.47719 4.47719 0 10 0C10 3.80293 10 10 10 10C10 10 3.47824 10 0 10Z" fill="#0052B4"/>
<path d="M5.95281 3.47803L6.60035 5.47092H8.69578L7.00054 6.70256L7.64804 8.69545L5.95281 7.46377L4.25757 8.69545L4.90507 6.70256L3.20984 5.47092H5.30527L5.95281 3.47803Z" fill="#F0F0F0"/>
</g>
<defs>
<clipPath id="clip0_161_90">
<rect width="20" height="20" fill="white"/>
</clipPath>
</defs>
</svg>
